# xmcd
#
# Track frame offsets: 
#        150
#        14611
#        28189
#        49101
#        64166
#        73690
#        87832
#        97907
#        111301
#        124926
#        138346
#
# Disc length: 2032 seconds
#
# Revision: 2
# Processed by: cddbd v1.5.2PL0 Copyright (c) Steve Scherf et al.
# Submitted via: ExactAudioCopy v0.90b4
#
DISCID=9a07ee0b
DTITLE=Superpunk - Die Seele des Menschen unter Superpunk
DYEAR=2010
DGENRE=Alt. Rock
TTITLE0=Ford Escort
TTITLE1=Ich bin nicht so wie jeder andere auch
TTITLE2=Das Feuerwerk ist vorbei
TTITLE3=Alle lieben dich, Daniela
TTITLE4=Up All Night!
TTITLE5=Das waren Mods
TTITLE6=In der Bibliothek
TTITLE7=Rette dich vor den einfachen Leuten
TTITLE8=Ich will heute nicht kämpfen
TTITLE9=Oh, dieser Sound!
TTITLE10=Babylon Forever
EXTD=
EXTT0=
EXTT1=
EXTT2=
EXTT3=
EXTT4=
EXTT5=
EXTT6=
EXTT7=
EXTT8=
EXTT9=
EXTT10=
PLAYORDER=
